%TF.GenerationSoftware,KiCad,Pcbnew,10.0.5*%
%TF.CreationDate,2026-08-29T11:25:31+05:30*%
%TF.ProjectId,5V Regulated Power Supply,35562052-6567-4756-9c61-74656420506f,rev?*%
%TF.SameCoordinates,Original*%
%TF.FileFunction,Copper,L1,Top*%
%TF.FilePolarity,Positive*%
%FSLAX46Y46*%
G04 Gerber Fmt 4.6, Leading zero omitted, Abs format (unit mm)*
G04 Created by KiCad (PCBNEW 10.0.5) date 2026-08-29 11:25:31*
%MOMM*%
%LPD*%
G01*
G04 APERTURE LIST*
G04 Aperture macros list*
%AMRoundRect*
0 Rectangle with rounded corners*
0 $1 Rounding radius*
0 $2 $3 $4 $5 $6 $7 $8 $9 X,Y pos of 4 corners*
0 Add a 4 corners polygon primitive as box body*
4,1,4,$2,$3,$4,$5,$6,$7,$8,$9,$2,$3,0*
0 Add four circle primitives for the rounded corners*
1,1,$1+$1,$2,$3*
1,1,$1+$1,$4,$5*
1,1,$1+$1,$6,$7*
1,1,$1+$1,$8,$9*
0 Add four rect primitives between the rounded corners*
20,1,$1+$1,$2,$3,$4,$5,0*
20,1,$1+$1,$4,$5,$6,$7,0*
20,1,$1+$1,$6,$7,$8,$9,0*
20,1,$1+$1,$8,$9,$2,$3,0*%
G04 Aperture macros list end*
%TA.AperFunction,ComponentPad*%
%ADD10R,1.905000X2.000000*%
%TD*%
%TA.AperFunction,ComponentPad*%
%ADD11O,1.905000X2.000000*%
%TD*%
%TA.AperFunction,ComponentPad*%
%ADD12C,1.400000*%
%TD*%
%TA.AperFunction,SMDPad,CuDef*%
%ADD13RoundRect,0.200000X0.562500X0.200000X-0.562500X0.200000X-0.562500X-0.200000X0.562500X-0.200000X0*%
%TD*%
%TA.AperFunction,ComponentPad*%
%ADD14RoundRect,0.250000X-0.550000X0.550000X-0.550000X-0.550000X0.550000X-0.550000X0.550000X0.550000X0*%
%TD*%
%TA.AperFunction,ComponentPad*%
%ADD15C,1.600000*%
%TD*%
%TA.AperFunction,ComponentPad*%
%ADD16RoundRect,0.250000X0.550000X-0.550000X0.550000X0.550000X-0.550000X0.550000X-0.550000X-0.550000X0*%
%TD*%
%TA.AperFunction,Conductor*%
%ADD17C,0.200000*%
%TD*%
G04 APERTURE END LIST*
D10*
%TO.P,U1,1,IN_1*%
%TO.N,Net-(D1-+)*%
X133450000Y-111550000D03*
D11*
%TO.P,U1,2,GND_2*%
%TO.N,Net-(D1--)*%
X130910000Y-111550000D03*
%TO.P,U1,3,OUT_3*%
%TO.N,Net-(U1-OUT)*%
X128370000Y-111550000D03*
%TD*%
D12*
%TO.P,TP2,1,1_1*%
%TO.N,Net-(D1--)*%
X115250000Y-113250000D03*
%TO.P,TP2,2,2_2*%
%TO.N,Net-(U1-OUT)*%
X115250000Y-110710000D03*
%TD*%
%TO.P,TP1,1,1_1*%
%TO.N,Net-(D1-Pad4)*%
X115250000Y-119000000D03*
%TO.P,TP1,2,2_2*%
%TO.N,Net-(D1-Pad3)*%
X115250000Y-116460000D03*
%TD*%
D13*
%TO.P,D1,1,+_1*%
%TO.N,Net-(D1-+)*%
X125687500Y-119750000D03*
%TO.P,D1,2,-_2*%
%TO.N,Net-(D1--)*%
X125687500Y-115750000D03*
%TO.P,D1,3*%
%TO.N,Net-(D1-Pad3)*%
X119812500Y-115750000D03*
%TO.P,D1,4*%
%TO.N,Net-(D1-Pad4)*%
X119812500Y-119750000D03*
%TD*%
D14*
%TO.P,C2,1*%
%TO.N,Net-(U1-OUT)*%
X122250000Y-110500000D03*
D15*
%TO.P,C2,2*%
%TO.N,Net-(D1--)*%
X122250000Y-113000000D03*
%TD*%
D16*
%TO.P,C1,1*%
%TO.N,Net-(D1-+)*%
X129750000Y-119455113D03*
D15*
%TO.P,C1,2*%
%TO.N,Net-(D1--)*%
X129750000Y-116955113D03*
%TD*%
%TO.N,Net-(D1-+)*%
D17*
X129455113Y-119750000D02*
X129750000Y-119455113D01*
X125687500Y-119750000D02*
X129455113Y-119750000D01*
%TO.N,Net-(D1-Pad4)*%
X116000000Y-119750000D02*
X119812500Y-119750000D01*
X115250000Y-119000000D02*
X116000000Y-119750000D01*
%TO.N,Net-(D1-Pad3)*%
X119102500Y-116460000D02*
X119812500Y-115750000D01*
X115250000Y-116460000D02*
X119102500Y-116460000D01*
%TO.N,Net-(D1-+)*%
X133450000Y-115755113D02*
X129750000Y-119455113D01*
X133450000Y-111550000D02*
X133450000Y-115755113D01*
%TO.N,Net-(D1--)*%
X122250000Y-113000000D02*
X115500000Y-113000000D01*
X115500000Y-113000000D02*
X115250000Y-113250000D01*
X122937500Y-113000000D02*
X122250000Y-113000000D01*
X125687500Y-115750000D02*
X122937500Y-113000000D01*
X125687500Y-115750000D02*
X128544887Y-115750000D01*
X128544887Y-115750000D02*
X129750000Y-116955113D01*
X130910000Y-115795113D02*
X129750000Y-116955113D01*
X130910000Y-111550000D02*
X130910000Y-115795113D01*
%TO.N,Net-(U1-OUT)*%
X127320000Y-110500000D02*
X128370000Y-111550000D01*
X122250000Y-110500000D02*
X127320000Y-110500000D01*
X122040000Y-110710000D02*
X122250000Y-110500000D01*
X115250000Y-110710000D02*
X122040000Y-110710000D01*
%TD*%
M02*
